<svg xmlns="http://www.w3.org/2000/svg" viewBox="0 0 474.06 123.37"><defs><style>.cls-1{fill:red;}</style></defs><g id="Layer_2" data-name="Layer 2"><path d="M148.2,260.24V138.53h84.86v23.89H177.62v25h51.1v23.95h-51.1v25h55.44v23.89Z" transform="translate(-148.2 -138.53)"/><path d="M325.12,138.53h29.35V217q0,13.62-6.47,23.68a42.66,42.66,0,0,1-18.07,15.58q-11.6,5.49-26.92,5.49-15.51,0-27.1-5.49a42.26,42.26,0,0,1-18-15.58q-6.42-10.07-6.41-23.68v-78.5H280.9v75.95a22.44,22.44,0,0,0,2.77,11.22,19.8,19.8,0,0,0,7.75,7.73,25.33,25.33,0,0,0,23.15,0,20.15,20.15,0,0,0,7.76-7.73,22.34,22.34,0,0,0,2.79-11.22Z" transform="translate(-148.2 -138.53)"/><path d="M476.48,138.53V260.24h-25L403.09,190h-.77v70.25H372.9V138.53h25.32l47.9,70.12h1V138.53Z" transform="translate(-148.2 -138.53)"/><path d="M544.35,138.53h29v84.14a38.22,38.22,0,0,1-5.64,20.66A37.66,37.66,0,0,1,552.29,257a50.58,50.58,0,0,1-22.73,4.87,52.22,52.22,0,0,1-20.72-4A32.7,32.7,0,0,1,494,245.55q-5.49-8.37-5.43-21.45H517.9a19.74,19.74,0,0,0,1.82,8,11.31,11.31,0,0,0,4.54,5,13.82,13.82,0,0,0,7,1.66,13.23,13.23,0,0,0,7.13-1.81,11.34,11.34,0,0,0,4.43-5.38,23.38,23.38,0,0,0,1.57-8.86Z" transform="translate(-148.2 -138.53)"/><rect x="444.93" y="34.27" width="29.13" height="87.44"/><rect class="cls-1" x="444.93" width="29.13" height="26.03"/></g></svg>